<svg xmlns="http://www.w3.org/2000/svg" viewBox="0 0 114.86 114.86"><defs><style>.cls-1{fill:#69af4f;}</style></defs><g id="Capa_2" data-name="Capa 2"><g id="blanco_deg" data-name="blanco deg"><path class="cls-1" d="M70.48,88.76A5.22,5.22,0,0,1,65.26,94H49.58a5.22,5.22,0,0,1,0-10.44H65.26a5.22,5.22,0,0,1,5.22,5.22Z"/><path class="cls-1" d="M75.73,57.35,75.81,73a5.22,5.22,0,0,1-10.38.87,7.35,7.35,0,0,1-.07-.82l-.07-15.53a7.85,7.85,0,1,0-15.69.07l.07,15.55a5.2,5.2,0,0,1-8.87,3.72,5.2,5.2,0,0,1-1.54-3.68l-.2-44.41a5.2,5.2,0,0,1,10.4-.05L49.52,41A18.28,18.28,0,0,1,75.73,57.35Z"/><path class="cls-1" d="M114.86,57.43v.14A57.43,57.43,0,1,1,57.3,0h.27a5.22,5.22,0,0,1-.14,10.44,47,47,0,1,0,47,47,5.22,5.22,0,0,1,10.44-.13Z"/></g></g></svg>