<svg xmlns="http://www.w3.org/2000/svg" viewBox="0 0 754.6 114.86"><defs><style>.cls-1{fill:#69af4f;}</style></defs><g id="Capa_2" data-name="Capa 2"><g id="blanco_mono" data-name="blanco mono"><path class="cls-1" d="M70.48,88.76A5.22,5.22,0,0,1,65.26,94H49.58a5.22,5.22,0,0,1,0-10.44H65.26a5.22,5.22,0,0,1,5.22,5.22Z"/><path class="cls-1" d="M75.73,57.35,75.81,73a5.22,5.22,0,0,1-10.38.87,7.35,7.35,0,0,1-.07-.82l-.07-15.53a7.85,7.85,0,1,0-15.69.07l.07,15.55a5.2,5.2,0,0,1-8.87,3.72,5.2,5.2,0,0,1-1.54-3.68l-.2-44.41a5.2,5.2,0,0,1,10.4-.05L49.52,41A18.28,18.28,0,0,1,75.73,57.35Z"/><path class="cls-1" d="M114.86,57.43v.14A57.43,57.43,0,1,1,57.3,0h.27a5.22,5.22,0,0,1-.14,10.44,47,47,0,1,0,47,47,5.22,5.22,0,0,1,10.44-.13Z"/><path d="M160.5,21.51h0a4.66,4.66,0,0,1,4.63,4.68v26q3.87-7.5,11.2-7.5A14.41,14.41,0,0,1,188,50a20.86,20.86,0,0,1,4.52,13.35V88.73a4.66,4.66,0,0,1-4.64,4.67h0a4.65,4.65,0,0,1-4.63-4.67V63.67a10.67,10.67,0,0,0-2.23-6.82C179.56,55,177.21,54,174,54q-5.72,0-8.86,6.17V88.76a4.63,4.63,0,0,1-4.61,4.65h-.05a4.62,4.62,0,0,1-4.6-4.65V26.19A4.66,4.66,0,0,1,160.5,21.51Z"/><path d="M220,81.92c1.54,1.35,4.35,2,8.41,2a15.47,15.47,0,0,0,11.27-4.6h0a5.57,5.57,0,0,1,5.93-1.46h0a4.33,4.33,0,0,1,1.89,6.87c-.45.53-.83,1-1.15,1.28a25.46,25.46,0,0,1-35.85,0,24.21,24.21,0,0,1-7.43-17.81,24.21,24.21,0,0,1,7.43-17.82,25.56,25.56,0,0,1,33.67-2c.74.62,1.47,1.29,2.18,2h0a3.77,3.77,0,0,1,0,5.33l-2.08,2.09Zm15.4-28.29c-1-.8-3.36-1.19-7-1.19a15.3,15.3,0,0,0-11.19,4.62,15.11,15.11,0,0,0-4.66,11.16q0,5.34,1.2,6.94Z"/><path d="M265.34,60.53h20.78a4.65,4.65,0,0,1,4.67,4.63h0a4.65,4.65,0,0,1-4.67,4.63H265.34a4.65,4.65,0,0,1-4.66-4.63h0A4.65,4.65,0,0,1,265.34,60.53Z"/><path d="M312.24,26.13V88.74a4.65,4.65,0,0,1-4.63,4.67h0A4.65,4.65,0,0,1,303,88.74V26.13a4.65,4.65,0,0,1,4.63-4.68h0A4.65,4.65,0,0,1,312.24,26.13Z"/><path d="M334.68,26.13V88.74a4.65,4.65,0,0,1-4.63,4.67h0a4.65,4.65,0,0,1-4.63-4.67V26.13a4.66,4.66,0,0,1,4.63-4.68h0A4.65,4.65,0,0,1,334.68,26.13Z"/><path d="M370.79,43a24.5,24.5,0,0,1,17.93,7.38,24.23,24.23,0,0,1,7.41,17.82A24.23,24.23,0,0,1,388.72,86a25.42,25.42,0,0,1-35.82,0,24.18,24.18,0,0,1-7.44-17.81A24.18,24.18,0,0,1,352.9,50.4,24.47,24.47,0,0,1,370.79,43ZM359.55,57.08a15.66,15.66,0,0,0,0,22.27,16,16,0,0,0,22.49,0,15.66,15.66,0,0,0,0-22.27,15.95,15.95,0,0,0-22.49,0Z"/><path class="cls-1" d="M425.91,67.65V91.82H413.14V23.17H435.5a39.07,39.07,0,0,1,11.92,1.61,22.94,22.94,0,0,1,8.31,4.51,17.64,17.64,0,0,1,4.84,6.93,24.11,24.11,0,0,1,1.57,8.83,24.33,24.33,0,0,1-1.66,9.14,19,19,0,0,1-5,7.15A23.19,23.19,0,0,1,447.18,66a36.89,36.89,0,0,1-11.68,1.66Zm0-10h9.59a19.11,19.11,0,0,0,6.13-.88A11.33,11.33,0,0,0,446,54.29a10.27,10.27,0,0,0,2.56-4,15.29,15.29,0,0,0,.86-5.25,13.84,13.84,0,0,0-.86-5,9.87,9.87,0,0,0-2.56-3.8,11.56,11.56,0,0,0-4.32-2.4A20.38,20.38,0,0,0,435.5,33h-9.59Z"/><path class="cls-1" d="M471.4,91.82V43.11h6.88a3.73,3.73,0,0,1,2.52.66,3.91,3.91,0,0,1,.95,2.28l.71,5.89a23,23,0,0,1,6.13-7.12,12.87,12.87,0,0,1,7.88-2.61,10.17,10.17,0,0,1,6,1.66l-1.52,8.78a1.83,1.83,0,0,1-.62,1.21,2,2,0,0,1-1.28.36,7.78,7.78,0,0,1-1.95-.34,13.05,13.05,0,0,0-3.27-.33,10,10,0,0,0-6.27,2,15.58,15.58,0,0,0-4.41,5.91V91.82Z"/><path class="cls-1" d="M531.41,43a25.17,25.17,0,1,0,25.17,25.18A25.17,25.17,0,0,0,531.41,43Zm0,40.07a14.9,14.9,0,1,1,14.9-14.89A14.9,14.9,0,0,1,531.41,83.1Z"/><path class="cls-1" d="M576.66,43.11V93.48a21,21,0,0,1-.83,6,13.34,13.34,0,0,1-2.66,4.92,12.42,12.42,0,0,1-4.8,3.32,19.13,19.13,0,0,1-7.24,1.21,21,21,0,0,1-3.08-.21,17.64,17.64,0,0,1-2.9-.69l.38-6.31a1.42,1.42,0,0,1,.76-1.22,7.17,7.17,0,0,1,2.37-.26,10.61,10.61,0,0,0,3-.35,4.29,4.29,0,0,0,2-1.14,4.41,4.41,0,0,0,1-2.07,13.55,13.55,0,0,0,.31-3.18V43.11Zm1.75-14.2a6.73,6.73,0,0,1-.61,2.85,7.74,7.74,0,0,1-4,3.92,7.46,7.46,0,0,1-2.94.59,7.2,7.2,0,0,1-2.88-.59A7.55,7.55,0,0,1,564,31.76a7,7,0,0,1-.59-2.85A7.46,7.46,0,0,1,564,26a7.76,7.76,0,0,1,1.59-2.38A7.86,7.86,0,0,1,567.94,22a7.2,7.2,0,0,1,2.88-.59,7.46,7.46,0,0,1,2.94.59,8,8,0,0,1,2.4,1.59A7.89,7.89,0,0,1,577.8,26,7.14,7.14,0,0,1,578.41,28.91Z"/><path class="cls-1" d="M609.84,42.35a23.71,23.71,0,0,1,8.48,1.47,18.48,18.48,0,0,1,6.67,4.3,19.62,19.62,0,0,1,4.37,6.93,26.28,26.28,0,0,1,1.56,9.38,18.87,18.87,0,0,1-.11,2.2,3.62,3.62,0,0,1-.43,1.38,1.78,1.78,0,0,1-.83.71,3.58,3.58,0,0,1-1.33.22h-30.1q.51,7.5,4,11a12.59,12.59,0,0,0,9.31,3.51,16.16,16.16,0,0,0,4.91-.66A22.52,22.52,0,0,0,620,81.33c1-.54,1.93-1,2.71-1.47a4.44,4.44,0,0,1,2.25-.67,2.55,2.55,0,0,1,1.24.29,2.83,2.83,0,0,1,.9.8l3.42,4.28a19.71,19.71,0,0,1-4.37,3.82,24.66,24.66,0,0,1-5.06,2.47,27.75,27.75,0,0,1-5.36,1.3,37.46,37.46,0,0,1-5.3.38A26.07,26.07,0,0,1,601,90.85a21.17,21.17,0,0,1-7.6-5,23.37,23.37,0,0,1-5.08-8.16,31.54,31.54,0,0,1-1.85-11.28A26.91,26.91,0,0,1,588.05,57a22.69,22.69,0,0,1,4.63-7.64A21.65,21.65,0,0,1,600,44.25,24.17,24.17,0,0,1,609.84,42.35Zm.24,8.4q-5.13,0-8,2.9a14.31,14.31,0,0,0-3.71,8.21h22a14.7,14.7,0,0,0-.61-4.3,10.11,10.11,0,0,0-1.9-3.53,9,9,0,0,0-3.23-2.4A10.94,10.94,0,0,0,610.08,50.75Z"/><path class="cls-1" d="M674.7,53.41a5.94,5.94,0,0,1-1,1,2.34,2.34,0,0,1-1.45.38,3.26,3.26,0,0,1-1.76-.54c-.57-.36-1.25-.78-2-1.24a15.57,15.57,0,0,0-2.82-1.23,13.15,13.15,0,0,0-4.06-.55,12.46,12.46,0,0,0-5.42,1.12,10.26,10.26,0,0,0-3.87,3.2,14.73,14.73,0,0,0-2.3,5.06,27.49,27.49,0,0,0-.76,6.72A26.49,26.49,0,0,0,650,74.3a14.9,14.9,0,0,0,2.4,5.1,10.23,10.23,0,0,0,3.8,3.14,11.53,11.53,0,0,0,5,1.07,12.49,12.49,0,0,0,4.54-.69,15,15,0,0,0,2.92-1.52c.79-.56,1.48-1.06,2.06-1.52a3.11,3.11,0,0,1,2-.69,2.39,2.39,0,0,1,2.14,1.09l3.37,4.28A21.27,21.27,0,0,1,674,88.38a22.91,22.91,0,0,1-4.72,2.47,24.26,24.26,0,0,1-5.06,1.3,34.89,34.89,0,0,1-5.17.38,21.67,21.67,0,0,1-8.5-1.68,19.86,19.86,0,0,1-7-4.92,23.66,23.66,0,0,1-4.7-7.9,30.68,30.68,0,0,1-1.73-10.66,31,31,0,0,1,1.54-10,22.51,22.51,0,0,1,4.54-7.93,20.69,20.69,0,0,1,7.4-5.24,25.47,25.47,0,0,1,10.16-1.9,24.21,24.21,0,0,1,9.57,1.75,23.37,23.37,0,0,1,7.38,5Z"/><path class="cls-1" d="M701.76,92.58q-6.32,0-9.73-3.58t-3.42-9.9V51.89h-4.94a2.26,2.26,0,0,1-2.33-2.47V44.77l7.84-1.28,2.47-13.3a2.33,2.33,0,0,1,.88-1.47,2.74,2.74,0,0,1,1.73-.52h6.08V43.53h12.81v8.36H700.34v26.4a5.16,5.16,0,0,0,1.14,3.56,3.86,3.86,0,0,0,3,1.28,5.63,5.63,0,0,0,1.83-.26,9.26,9.26,0,0,0,1.28-.55c.37-.19.69-.37,1-.54a1.56,1.56,0,0,1,.85-.26,1.34,1.34,0,0,1,.86.26,4,4,0,0,1,.71.78l3.51,5.7a17.85,17.85,0,0,1-5.89,3.23A21.82,21.82,0,0,1,701.76,92.58Z"/><path class="cls-1" d="M751.42,52.6a3.07,3.07,0,0,1-1,1.07,2.54,2.54,0,0,1-1.33.31,4.12,4.12,0,0,1-1.82-.48c-.65-.31-1.4-.67-2.26-1.06a20.43,20.43,0,0,0-2.92-1.07,13.82,13.82,0,0,0-3.87-.48,9,9,0,0,0-5.46,1.48,4.55,4.55,0,0,0-2,3.84,3.69,3.69,0,0,0,1,2.64,9.18,9.18,0,0,0,2.71,1.87,26.13,26.13,0,0,0,3.82,1.45c1.42.43,2.88.89,4.37,1.4s2.94,1.09,4.36,1.73a15.52,15.52,0,0,1,3.83,2.47,10.91,10.91,0,0,1,3.72,8.62,16.26,16.26,0,0,1-1.28,6.48A14.14,14.14,0,0,1,749.57,88a17.67,17.67,0,0,1-6.1,3.37,26.23,26.23,0,0,1-8.33,1.21,26.64,26.64,0,0,1-4.92-.45,28.57,28.57,0,0,1-4.6-1.26,25.22,25.22,0,0,1-4.09-1.9,20.22,20.22,0,0,1-3.3-2.37l2.71-4.47a4,4,0,0,1,1.23-1.23,3.54,3.54,0,0,1,1.81-.43,3.79,3.79,0,0,1,2.06.62c.65.41,1.4.85,2.26,1.33a20.46,20.46,0,0,0,3,1.33,13.34,13.34,0,0,0,4.4.62,11.45,11.45,0,0,0,3.58-.5,7.5,7.5,0,0,0,2.47-1.31,4.89,4.89,0,0,0,1.42-1.87,5.67,5.67,0,0,0,.45-2.21,3.94,3.94,0,0,0-1-2.8,8.94,8.94,0,0,0-2.7-1.9,26.57,26.57,0,0,0-3.85-1.45c-1.44-.43-2.91-.89-4.41-1.4a41.2,41.2,0,0,1-4.42-1.78,14.81,14.81,0,0,1-3.84-2.59,11.54,11.54,0,0,1-2.71-3.84,13.45,13.45,0,0,1-1-5.51,13.9,13.9,0,0,1,1.19-5.7,13.36,13.36,0,0,1,3.48-4.72,17.32,17.32,0,0,1,5.75-3.23A23.81,23.81,0,0,1,738,42.35,24.34,24.34,0,0,1,747.2,44a20.7,20.7,0,0,1,6.88,4.37Z"/></g></g></svg>